<svg xmlns="http://www.w3.org/2000/svg" viewBox="0 0 100 100">
    <g transform="translate(0,-952.36218)">
        <path d="m 83.999995,1002.357 c -0.028,-0.715 -0.3223,-1.5414 -0.8125,-2.0626 l -16.00001,-17.00085 c -1.0842,-0.9743 -3.1632,-1.3765 -4.375,-0.25 -1.1936,1.1095 -1.1581,3.2613 0.031,4.3752 l 11.25,11.9381 -55.09349,0 c -1.6568,0 -3,1.34325 -3,3.00015 0,1.6569 1.3432,3.0001 3,3.0001 l 55.09349,0 -11.25,11.9381 c -1.0237,1.0255 -1.2129,3.253 -0.031,4.3752 1.1816,1.1221 3.3353,0.7636 4.375,-0.2501 l 16.00001,-17.0007 c 0.5475,-0.5818 0.8143,-1.2644 0.8125,-2.0626 z" fill="#ea4a33" />
    </g>
</svg>